<svg width="40" height="38" viewBox="0 0 40 38" fill="none" xmlns="http://www.w3.org/2000/svg">
<g clip-path="url(#clip0_152_5)">
<path d="M14.5 26.5C23.3 26.5 27.5 27.8333 28.5 28.5L30 32.5L19.5 36L10 33.5L11 28.5L14.5 26.5Z" fill="white"/>
<ellipse cx="4" cy="3.5" rx="4" ry="3.5" transform="matrix(-1 0 0 1 24 11)" fill="white"/>
<path d="M8.24219 29.6578C9.73438 26.1918 13.3203 23.75 17.5 23.75H22.5C26.6797 23.75 30.2656 26.1918 31.7578 29.6578C34.5391 26.882 36.25 23.134 36.25 19C36.25 10.4723 28.9766 3.5625 20 3.5625C11.0234 3.5625 3.75 10.4723 3.75 19C3.75 23.134 5.46094 26.882 8.24219 29.6578ZM11.375 32.0848C13.875 33.5766 16.8281 34.4375 20 34.4375C23.1719 34.4375 26.125 33.5766 28.6328 32.0848C28.0625 29.3609 25.5312 27.3125 22.5 27.3125H17.5C14.4688 27.3125 11.9375 29.3609 11.3672 32.0848H11.375ZM20 38C14.6957 38 9.60859 35.9982 5.85786 32.435C2.10714 28.8718 0 24.0391 0 19C0 13.9609 2.10714 9.12816 5.85786 5.56497C9.60859 2.00178 14.6957 0 20 0C25.3043 0 30.3914 2.00178 34.1421 5.56497C37.8929 9.12816 40 13.9609 40 19C40 24.0391 37.8929 28.8718 34.1421 32.435C30.3914 35.9982 25.3043 38 20 38ZM20 17.8125C20.8288 17.8125 21.6237 17.4997 22.2097 16.943C22.7958 16.3862 23.125 15.6311 23.125 14.8438C23.125 14.0564 22.7958 13.3013 22.2097 12.7445C21.6237 12.1878 20.8288 11.875 20 11.875C19.1712 11.875 18.3763 12.1878 17.7903 12.7445C17.2042 13.3013 16.875 14.0564 16.875 14.8438C16.875 15.6311 17.2042 16.3862 17.7903 16.943C18.3763 17.4997 19.1712 17.8125 20 17.8125ZM26.875 14.8438C26.875 16.5759 26.1507 18.2372 24.8614 19.462C23.572 20.6869 21.8234 21.375 20 21.375C18.1766 21.375 16.428 20.6869 15.1386 19.462C13.8493 18.2372 13.125 16.5759 13.125 14.8438C13.125 13.1116 13.8493 11.4503 15.1386 10.2255C16.428 9.00061 18.1766 8.3125 20 8.3125C21.8234 8.3125 23.572 9.00061 24.8614 10.2255C26.1507 11.4503 26.875 13.1116 26.875 14.8438Z" fill="#243A69"/>
</g>
<defs>
<clipPath id="clip0_152_5">
<rect width="40" height="38" fill="white" transform="matrix(-1 0 0 1 40 0)"/>
</clipPath>
</defs>
</svg>
